<svg width="19" height="21" viewBox="0 0 19 21" fill="none" xmlns="http://www.w3.org/2000/svg">
<path d="M6.57799 11.6592C6.57799 14.4018 7.86228 16.6251 9.44653 16.6251C11.0308 16.6251 12.5927 14.0342 10.5878 11.2274C10.5878 8.48472 8.00802 8.20459 6.42377 8.20459C4.83952 8.20459 6.57799 8.91655 6.57799 11.6592Z" fill="#F0F0F0"/>
<ellipse rx="1.6656" ry="2.37503" transform="matrix(-1 0 0 1 8.14299 8.85208)" fill="#FFD3AA"/>
<path d="M2.93601 8.69751C2.93601 10.1455 3.79966 12.4297 7.8403 12.0287C9.37344 12.0287 8.6114 10.8549 8.6114 9.40694C8.6114 7.95897 9.37344 6.78516 7.8403 6.78516C4.3857 6.78516 2.93601 7.24954 2.93601 8.69751Z" fill="#F0F0F0"/>
<ellipse rx="6.10721" ry="2.46756" transform="matrix(-1 0 0 1 6.10763 6.97049)" fill="#828282"/>
<path d="M6.38445 1.6917C6.30468 1.57504 6.18726 1.4893 6.05184 1.44884L1.4392 0.0706771C1.37766 0.0522901 1.3325 0.128465 1.37815 0.173637L3.81782 2.58735C3.99073 2.75841 4.04697 3.01511 3.96144 3.24281L2.60159 6.8629H9.92071L6.38445 1.6917Z" fill="#6A727A"/>
<path d="M2.59065 6.90917C2.59065 7.45428 4.23399 7.89619 6.26115 7.89619C8.2883 7.89619 9.93164 7.45428 9.93164 6.90917C9.93164 6.36405 8.2883 5.92214 6.26115 5.92214C4.23399 5.92214 2.59065 6.36405 2.59065 6.90917Z" fill="#6A727A"/>
<path d="M0.185492 19.5833L4.04618 11.2275L4.11559 11.2632C5.71146 12.0835 7.6079 12.0702 9.19208 11.2275L12.214 19.581H12.2148C12.2148 19.5817 12.2148 19.5825 12.2148 19.5833C12.2134 19.7412 12.0579 19.8975 11.7573 20.0434C11.4552 20.19 11.0124 20.3232 10.4542 20.4354C9.89598 20.5476 9.2333 20.6366 8.50398 20.6974C7.77466 20.7581 6.99298 20.7893 6.20357 20.7893C5.41415 20.7893 4.63247 20.7581 3.90315 20.6974C3.17383 20.6366 2.51115 20.5476 1.95295 20.4354C1.39475 20.3232 0.951962 20.19 0.649867 20.0434C0.34922 19.8975 0.19378 19.7412 0.192296 19.5833H0.185492Z" fill="#6A727A"/>
<path d="M13.8179 8.82178L15.8431 9.46478L17.8525 3.13598L17.2164 1.76361L15.8273 2.49298L13.8179 8.82178Z" fill="white"/>
<path d="M13.8179 8.82178L14.8694 9.15565L17.2164 1.76361L15.8273 2.49298L13.8179 8.82178Z" fill="#BCCFE8"/>
<path d="M12.8783 8.96935C12.8428 9.0812 12.9046 9.20066 13.0165 9.23618L16.2568 10.265C16.3687 10.3005 16.4881 10.2386 16.5237 10.1268L16.6523 9.72172L13.0069 8.56431L12.8783 8.96935Z" fill="#673417"/>
<path d="M16.0503 9.86475L16.5566 10.0255L16.7656 9.3673C16.81 9.22749 16.7326 9.07816 16.5928 9.03377C16.453 8.98938 16.3037 9.06674 16.2593 9.20655L16.0503 9.86475Z" fill="#673417"/>
<path d="M13.7171 11.2421C13.6638 11.4099 13.7566 11.5891 13.9244 11.6423L14.1269 11.7067C14.2947 11.7599 14.4739 11.6671 14.5271 11.4993L15.0415 9.87915C15.0948 9.71137 15.002 9.53218 14.8342 9.47891L14.6317 9.41461C14.4639 9.36134 14.2847 9.45417 14.2315 9.62194L13.7171 11.2421Z" fill="#673417"/>
<path d="M12.9097 8.86816L13.416 9.02892L13.6249 8.37072C13.6693 8.23091 13.592 8.08158 13.4522 8.03719C13.3124 7.9928 13.163 8.07016 13.1186 8.20997L12.9097 8.86816Z" fill="#673417"/>
<ellipse rx="1.35716" ry="1.41885" transform="matrix(-1 0 0 1 14.1253 10.9809)" fill="#FFD3AA"/>
<path d="M14.127 9.37695L8.97592 11.3818L8.8217 14.0036L14.127 13.3559V9.37695Z" fill="#6A727A"/>
</svg>
