<svg width="20" height="22" viewBox="0 0 20 22" fill="none" xmlns="http://www.w3.org/2000/svg">
<path d="M6.92451 12.2731C6.92451 15.1601 8.27639 17.5005 9.94402 17.5005C11.6117 17.5005 13.2558 14.7732 11.1453 11.8186C11.1453 8.9316 8.4298 8.63672 6.76217 8.63672C5.09454 8.63672 6.92451 9.38615 6.92451 12.2731Z" fill="#F0F0F0"/>
<ellipse rx="1.75327" ry="2.50003" transform="matrix(-1 0 0 1 8.57095 9.31839)" fill="#FFD3AA"/>
<path d="M3.08828 9.15608C3.08828 10.6803 3.99738 13.0847 8.25068 12.6626C9.86452 12.6626 9.06237 11.427 9.06237 9.90284C9.06237 8.37866 9.86452 7.14307 8.25068 7.14307C4.61427 7.14307 3.08828 7.6319 3.08828 9.15608Z" fill="#F0F0F0"/>
<ellipse rx="6.42864" ry="2.59743" transform="matrix(-1 0 0 1 6.42878 7.33767)" fill="#64ABFF"/>
<path d="M6.7212 1.78073C6.63722 1.65793 6.51362 1.56769 6.37108 1.5251L1.51567 0.0743968C1.45089 0.055042 1.40335 0.135226 1.45141 0.182776L4.01947 2.72352C4.20148 2.9036 4.26069 3.1738 4.17066 3.41348L2.73923 7.22411H10.4436L6.7212 1.78073Z" fill="#3B8BEA"/>
<path d="M2.72772 7.27281C2.72772 7.84662 4.45755 8.31178 6.5914 8.31178C8.72525 8.31178 10.4551 7.84662 10.4551 7.27281C10.4551 6.699 8.72525 6.23384 6.5914 6.23384C4.45755 6.23384 2.72772 6.699 2.72772 7.27281Z" fill="#3B8BEA"/>
<path d="M0.194944 20.6139L4.25883 11.8184L4.33189 11.8559C6.01176 12.7194 8.008 12.7053 9.67557 11.8184L12.8566 20.6115H12.8574C12.8574 20.6123 12.8574 20.6131 12.8574 20.6138C12.8558 20.7801 12.6922 20.9446 12.3758 21.0982C12.0578 21.2525 11.5917 21.3928 11.0041 21.5109C10.4165 21.629 9.71896 21.7227 8.95125 21.7866C8.18354 21.8505 7.36072 21.8834 6.52976 21.8834C5.6988 21.8834 4.87598 21.8505 4.10827 21.7866C3.34056 21.7227 2.643 21.629 2.05543 21.5109C1.46785 21.3928 1.00176 21.2525 0.683762 21.0982C0.36729 20.9446 0.203669 20.7801 0.202107 20.6139H0.194944Z" fill="#3B8BEA"/>
<path d="M14.5352 9.28564L16.667 9.96249L18.7821 3.3006L18.1126 1.85599L16.6503 2.62375L14.5352 9.28564Z" fill="white"/>
<path d="M14.5352 9.28564L15.6421 9.63708L18.1126 1.85599L16.6503 2.62375L14.5352 9.28564Z" fill="#BCCFE8"/>
<path d="M13.5482 9.4416C13.5108 9.55934 13.5759 9.68509 13.6936 9.72247L17.1045 10.8054C17.2223 10.8428 17.348 10.7777 17.3854 10.6599L17.5208 10.2336L13.6835 9.01524L13.5482 9.4416Z" fill="#673417"/>
<path d="M16.8848 10.3843L17.4177 10.5535L17.6377 9.86065C17.6844 9.71348 17.603 9.5563 17.4558 9.50957C17.3087 9.46284 17.1515 9.54427 17.1047 9.69144L16.8848 10.3843Z" fill="#673417"/>
<path d="M14.4297 11.834C14.3736 12.0106 14.4713 12.1993 14.6479 12.2553L14.8611 12.323C15.0377 12.3791 15.2263 12.2814 15.2824 12.1048L15.8239 10.3993C15.8799 10.2227 15.7822 10.0341 15.6056 9.97803L15.3924 9.91035C15.2158 9.85428 15.0272 9.95199 14.9711 10.1286L14.4297 11.834Z" fill="#673417"/>
<path d="M13.5801 9.33496L14.113 9.50417L14.333 8.81134C14.3797 8.66417 14.2983 8.50698 14.1511 8.46025C14.004 8.41353 13.8468 8.49495 13.8001 8.64212L13.5801 9.33496Z" fill="#673417"/>
<ellipse rx="1.42859" ry="1.49352" transform="matrix(-1 0 0 1 14.8702 11.559)" fill="#FFD3AA"/>
<path d="M14.8691 9.87012L9.447 11.9805L9.28466 14.7403L14.8691 14.0585V9.87012Z" fill="#3B8BEA"/>
</svg>
