<svg width="16" height="14" viewBox="0 0 16 14" fill="none" xmlns="http://www.w3.org/2000/svg">
<path d="M13.5535 1.84035C12.5178 1.35539 11.4104 1.00292 10.2526 0.802246C10.1104 1.05952 9.94427 1.40556 9.82977 1.68084C8.599 1.49561 7.37953 1.49561 6.17143 1.68084C6.05693 1.40556 5.887 1.05952 5.74358 0.802246C4.58453 1.00292 3.47583 1.35667 2.44013 1.84292C0.351096 5.00227 -0.215208 8.08313 0.0679444 11.1203C1.4535 12.1558 2.79627 12.7849 4.11638 13.1965C4.44233 12.7476 4.73303 12.2703 4.98346 11.7673C4.50651 11.586 4.04969 11.3621 3.61804 11.1023C3.73256 11.0174 3.84456 10.9286 3.95279 10.8373C6.58549 12.0696 9.44592 12.0696 12.0472 10.8373C12.1566 10.9286 12.2686 11.0174 12.3819 11.1023C11.949 11.3634 11.4909 11.5872 11.014 11.7686C11.2644 12.2703 11.5538 12.7489 11.881 13.1978C13.2024 12.7862 14.5464 12.1571 15.932 11.1203C16.2642 7.59945 15.3644 4.54689 13.5535 1.84035ZM5.34212 9.25244C4.55181 9.25244 3.90371 8.51408 3.90371 7.61489C3.90371 6.71575 4.53797 5.97604 5.34212 5.97604C6.14628 5.97604 6.79436 6.71446 6.78052 7.61489C6.78181 8.51408 6.14628 9.25244 5.34212 9.25244ZM10.6578 9.25244C9.86752 9.25244 9.21939 8.51408 9.21939 7.61489C9.21939 6.71575 9.85368 5.97604 10.6578 5.97604C11.462 5.97604 12.1101 6.71446 12.0962 7.61489C12.0962 8.51408 11.462 9.25244 10.6578 9.25244Z" fill="#6C76FB"/>
</svg>
