<svg xmlns:xlink="http://www.w3.org/1999/xlink" width="22" height="21" viewBox="0 0 22 21" fill="currentColor" xmlns="http://www.w3.org/2000/svg" class="h-4 w-4"><g clip-path="url(#clip0_693_252)" fill="#FF8982"><path d="M11.0177 14.2219C10.94 14.2219 10.8614 14.2007 10.793 14.1568L5.19577 10.6354C5.0023 10.5129 4.94063 10.2603 5.05637 10.0626L10.6536 0.58663C10.7305 0.458211 10.8682 0.379639 11.0177 0.379639C11.1673 0.379639 11.3058 0.459056 11.3819 0.587475L16.9748 10.0634C17.0906 10.2603 17.0298 10.5138 16.8363 10.6363L11.2433 14.1576C11.174 14.1999 11.0954 14.2219 11.0177 14.2219Z" fill="#FF8982"></path> <path d="M11.0181 20.6562C10.882 20.6562 10.7545 20.5912 10.675 20.4805L5.07784 12.712C4.95956 12.5481 4.97392 12.3234 5.11332 12.1755C5.25188 12.0285 5.47577 11.9998 5.64559 12.1071L11.0181 15.4874L16.3905 12.1071C16.562 11.9998 16.7851 12.0285 16.9228 12.1755C17.0614 12.3225 17.0757 12.5473 16.9583 12.712L11.3611 20.4805C11.2817 20.5912 11.1541 20.6562 11.0181 20.6562Z" fill="#FF8982"></path></g> <defs><clipPath id="clip0_693_252"><rect width="20.2767" height="20.2767" fill="currentColor" transform="translate(0.879883 0.379639)"></rect></clipPath></defs></svg>