<svg xmlns:xlink="http://www.w3.org/1999/xlink" xmlns="http://www.w3.org/2000/svg" width="2430" height="1910" viewBox="0 0 2430 1910" fill="none">
<path d="M678.914 1582.7L678.908 759.189L1215.44 433.044L1751.98 759.189L1751.87 1582.7L1211.52 1908.26L678.914 1582.7Z" fill="#C23C3B"/>
<path d="M678.914 1582.7L678.908 759.189L1215.44 433.044L1211.5 759.194L1211.5 1582.7L1211.52 1908.26L678.914 1582.7Z" fill="#DB4241"/>
<path d="M1611.01 1057.89C1611.01 1057.58 1611.16 1057.29 1611.42 1057.12L1673.89 1015.09C1674.51 1014.67 1675.35 1015.12 1675.35 1015.87V1044.03C1675.35 1044.34 1675.19 1044.63 1674.94 1044.8L1612.47 1086.83C1611.85 1087.25 1611.01 1086.8 1611.01 1086.05V1057.89Z" fill="#FF696A"/>
<path d="M1667.16 1061.4C1667.16 1061.09 1667.32 1060.8 1667.58 1060.63L1730.04 1018.6C1730.67 1018.18 1731.5 1018.63 1731.5 1019.38V1047.54C1731.5 1047.85 1731.35 1048.14 1731.09 1048.31L1668.62 1090.34C1668 1090.76 1667.16 1090.31 1667.16 1089.56V1061.4Z" fill="#FF696A"/>
<path d="M1681.2 1012.27C1681.2 1011.96 1681.36 1011.67 1681.61 1011.49L1714.84 989.144C1715.46 988.726 1716.29 989.171 1716.29 989.921V1018.08C1716.29 1018.39 1716.14 1018.68 1715.88 1018.86L1682.66 1041.2C1682.04 1041.62 1681.2 1041.18 1681.2 1040.43V1012.27Z" fill="#FF696A"/>
<path d="M678.916 865.408L678.911 760.43L1215.45 434.285L1751.99 760.43L1751.88 865.408L1211.52 1190.97L678.916 865.408Z" fill="#F04D4E"/>
<rect width="627.888" height="627.888" transform="matrix(0.854512 -0.519432 0.854512 0.519432 678.91 759.189)" fill="#FF696A"/>
<path d="M836.745 663.244L1215.45 433.043L1593.48 662.841L1494.78 725.037C1487.13 729.852 1487.14 737.481 1494.78 742.294L1524.68 761.117C1532.24 765.876 1532.33 773.402 1524.9 778.234L1468.85 814.668C1460.65 819.996 1446.7 819.905 1438.69 814.471L1408.77 794.163C1400.95 788.862 1387.42 788.626 1379.12 793.646L1229.33 884.242C1221.31 889.096 1208.32 889.06 1200.37 884.161L1104.47 825.084C1096.47 820.155 1083.39 820.153 1075.38 825.079L1049.21 841.184C1041.32 846.039 1028.47 846.118 1020.42 841.362L958.042 804.502C949.401 799.396 949.865 790.877 959.043 786.13L1003.24 763.267L998.457 760.075C990.67 754.884 977.359 754.646 969.084 759.55L941.484 775.905C933.511 780.63 920.785 780.607 912.859 775.853L781.246 696.921L836.745 663.244Z" fill="#F04D4E"/>
<path d="M995.396 893.514C1006.55 886.732 1006.55 875.735 995.396 868.952C984.238 862.17 966.147 862.17 954.989 868.952L907.176 898.017L947.583 922.579L995.396 893.514Z" fill="#F04D4E"/>
<path d="M1215.63 993.511C1204.58 986.717 1204.64 975.776 1215.75 969.022C1226.95 962.211 1245.14 962.244 1256.27 969.095L1340.43 1020.86L1300.02 1045.42L1215.63 993.511Z" fill="#F04D4E"/>
<ellipse rx="29.1592" ry="13.0286" transform="matrix(-1 0 0 1 880.499 831.968)" fill="#F04D4E"/>
<ellipse rx="14.8898" ry="6.65288" transform="matrix(-1 0 0 1 939.436 829.313)" fill="#F04D4E"/>
<ellipse rx="29.1592" ry="13.0286" transform="matrix(-1 0 0 1 1565.43 824.523)" fill="#F04D4E"/>
<ellipse rx="14.8898" ry="6.65288" transform="matrix(-1 0 0 1 1624.37 798.294)" fill="#F04D4E"/>
<ellipse cx="1069.1" cy="936.195" rx="29.1592" ry="13.0286" fill="#F04D4E"/>
<ellipse cx="1346.43" cy="962.252" rx="29.1592" ry="13.0286" fill="#F04D4E"/>
<path d="M758.57 1059.75C758.57 1059.45 758.421 1059.17 758.172 1059.01L697.936 1018.48C697.337 1018.08 696.53 1018.51 696.53 1019.23V1046.39C696.53 1046.69 696.68 1046.97 696.929 1047.13L757.164 1087.66C757.764 1088.06 758.57 1087.63 758.57 1086.91V1059.75Z" fill="#FF696A"/>
<path d="M730.368 999.466C730.368 999.166 730.219 998.885 729.969 998.717L697.934 977.168C697.335 976.764 696.528 977.194 696.528 977.916V1005.07C696.528 1005.37 696.678 1005.65 696.927 1005.82L728.962 1027.37C729.562 1027.77 730.368 1027.34 730.368 1026.62V999.466Z" fill="#FF696A"/>
<path d="M1316.94 1095.64H1345.6V1161.88C1345.6 1166.3 1343.56 1170.48 1340.07 1173.19C1330.65 1180.51 1316.94 1173.81 1316.94 1161.88V1095.64Z" fill="#F04D4E"/>
<path d="M1356.64 1060.9H1385.3V1127.14C1385.3 1131.56 1383.26 1135.73 1379.77 1138.45C1370.36 1145.77 1356.64 1139.06 1356.64 1127.14V1060.9Z" fill="#F04D4E"/>
<path d="M1423.65 907.036H1452.31V973.276C1452.31 977.698 1450.27 981.873 1446.78 984.588C1437.36 991.91 1423.65 985.202 1423.65 973.276V907.036Z" fill="#FF696A"/>
<path d="M1463.35 872.292H1492.02V938.532C1492.02 942.954 1489.97 947.129 1486.48 949.844C1477.07 957.166 1463.35 950.458 1463.35 938.532V872.292Z" fill="#FF696A"/>
<path d="M824.46 811.493H795.797V877.733C795.797 882.155 797.839 886.33 801.33 889.045C810.744 896.367 824.46 889.659 824.46 877.733V811.493Z" fill="#FF696A"/>
<path d="M784.751 776.749H756.088V842.989C756.088 847.411 758.13 851.586 761.621 854.301C771.035 861.623 784.751 854.915 784.751 842.989V776.749Z" fill="#FF696A"/>
<path d="M864.163 946.741H835.5V1012.98C835.5 1017.4 837.542 1021.58 841.033 1024.29C850.447 1031.62 864.163 1024.91 864.163 1012.98V946.741Z" fill="#F04D4E"/>
<path d="M824.46 911.997H795.797V978.237C795.797 982.66 797.839 986.835 801.33 989.55C810.744 996.872 824.46 990.163 824.46 978.237V911.997Z" fill="#F04D4E"/>
<path d="M977.576 916.341L1097.31 987.688V1838.09L977.576 1763.72V916.341Z" fill="#FF696A"/>
<path d="M999.289 1097.11C999.289 1092.6 1004.82 1090.43 1007.89 1093.73L1016.85 1103.39C1021.12 1107.98 1023.48 1114.01 1023.48 1120.27V1161.2C1023.48 1174.56 1038.75 1182.17 1049.42 1174.14C1060.09 1166.1 1075.35 1173.72 1075.35 1187.07V1825.01L999.289 1777.76V1097.11Z" fill="#DB4241"/>
<path d="M1558.28 955.427L1438.54 1026.77V1771.59L1558.28 1697.21V955.427Z" fill="#F04D4E"/>
<path d="M1536.56 1136.2C1536.56 1131.68 1531.03 1129.51 1527.96 1132.82L1519 1142.47C1514.73 1147.06 1512.36 1153.09 1512.36 1159.36V1200.29C1512.36 1213.64 1497.1 1221.26 1486.43 1213.22C1475.76 1205.19 1460.5 1212.8 1460.5 1226.16V1758.5L1536.56 1711.26V1136.2Z" fill="#C23C3B"/>
<path d="M858.251 652.67L858.247 572.302L1217.98 353.633L1577.71 572.302L1577.63 652.67L1215.34 870.948L858.251 652.67Z" fill="#51323D"/>
<rect width="420.977" height="420.977" transform="matrix(0.854512 -0.519432 0.854512 0.519432 858.246 572.301)" fill="#7C323D"/>
<path d="M1255.85 753.177H1267.02V781.716L1255.85 790.401V753.177Z" fill="#7C323D"/>
<path d="M1275.7 734.565H1286.87V763.104L1275.7 771.789V734.565Z" fill="#7C323D"/>
<path d="M1113.63 623.751C1124.79 616.968 1124.79 605.972 1113.63 599.189C1102.48 592.406 1084.38 592.406 1073.23 599.189L987.834 651.097L1028.24 675.659L1113.63 623.751Z" fill="#904749"/>
<path d="M1237.35 675.864C1226.3 669.07 1226.36 658.129 1237.47 651.375C1248.67 644.564 1266.85 644.597 1277.99 651.448L1362.15 703.21L1321.74 727.772L1237.35 675.864Z" fill="#904749"/>
<ellipse rx="29.1592" ry="13.0286" transform="matrix(-1 0 0 1 961.157 585.047)" fill="#904749"/>
<ellipse rx="14.8898" ry="6.65288" transform="matrix(-1 0 0 1 1020.1 582.394)" fill="#904749"/>
<path d="M972.242 796.352L972.241 765.732L1033.73 728.357L1095.21 765.732L1095.2 796.352L1033.28 833.66L972.242 796.352Z" fill="#51323D"/>
<rect width="71.953" height="71.953" transform="matrix(0.854512 -0.519432 0.854512 0.519432 972.239 765.732)" fill="#7C323D"/>
<path d="M1513.18 765.332L1513.19 734.712L1451.7 697.337L1390.22 734.712L1390.23 765.332L1452.15 802.64L1513.18 765.332Z" fill="#51323D"/>
<path d="M1475.47 744.488H1486.64V773.027L1475.47 781.713V744.488Z" fill="#7C323D"/>
<path d="M971.7 629.095H960.533V657.633L971.7 666.319V629.095Z" fill="#7C323D"/>
<rect width="71.953" height="71.953" transform="matrix(-0.854512 -0.519432 -0.854512 0.519432 1513.19 734.712)" fill="#7C323D"/>
<path d="M1773.55 721.969L1773.55 695.246L1748.41 710.525L1723.27 695.246L1723.28 721.969L1748.59 737.221L1773.55 721.969Z" fill="#5B3E48"/>
<path d="M1748.59 721.968L1748.41 710.524L1723.27 695.246L1723.28 721.968L1748.59 737.221L1748.59 721.968Z" fill="#965254"/>
<rect width="29.4167" height="29.4167" transform="matrix(-0.854512 -0.519432 -0.854512 0.519432 1773.55 695.247)" fill="#7C323D"/>
<path d="M796.778 688.672L796.777 658.052L858.262 620.677L987.991 698.999L987.828 730.841L928.538 768.168L796.778 688.672Z" fill="#51323D"/>
<path d="M796.776 658.051L858.261 620.676L987.991 698.998L926.506 736.373L796.776 658.051Z" fill="#7C323D"/>
<ellipse rx="18.6197" ry="8.31944" transform="matrix(-0.982845 -0.184432 -0.184432 0.982845 860.274 663.322)" fill="#904749"/>
<ellipse rx="9.50794" ry="4.24823" transform="matrix(-0.982845 -0.184432 -0.184432 0.982845 897.579 668.598)" fill="#904749"/>
<path d="M858.781 677.487H847.614V706.025L858.781 713.47V677.487Z" fill="#7C323D"/>
<path d="M1010.16 766.825H998.994V795.364L1010.16 802.809V766.825Z" fill="#7C323D"/>
<path d="M1076.46 514.692L1076.46 449.329L1014.97 486.701L953.49 449.329L953.502 514.692L1015.42 552L1076.46 514.692Z" fill="#51323D"/>
<path d="M1015.43 514.692L1014.97 486.701L953.491 449.329L953.504 514.692L1015.43 552L1015.43 514.692Z" fill="#904749"/>
<rect width="71.953" height="71.953" transform="matrix(-0.854512 -0.519432 -0.854512 0.519432 1076.46 449.328)" fill="#7C323D"/>
<path d="M978.028 529.459L978.028 503.44L953.551 518.317L929.077 503.44L929.082 529.459L953.732 544.31L978.028 529.459Z" fill="#5B3E48"/>
<path d="M953.731 529.46L953.549 518.317L929.075 503.441L929.08 529.46L953.73 544.311L953.731 529.46Z" fill="#965254"/>
<rect width="28.6426" height="28.6426" transform="matrix(-0.854512 -0.519432 -0.854512 0.519432 978.03 503.441)" fill="#7C323D"/>
<path d="M1076.46 450.168L1076.46 384.805L1014.97 422.177L953.49 384.805L953.502 450.168L1015.42 487.476L1076.46 450.168Z" fill="#5B3E48"/>
<path d="M1015.43 450.168L1014.97 422.177L953.491 384.805L953.504 450.168L1015.43 487.476L1015.43 450.168Z" fill="#965254"/>
<rect width="71.953" height="71.953" transform="matrix(-0.854512 -0.519432 -0.854512 0.519432 1076.46 384.804)" fill="#7C323D"/>
<path d="M1037.46 399.544H1048.63V428.083L1037.46 436.769V399.544Z" fill="#7C323D"/>
<path d="M833.264 353.385L833.265 288.022L771.775 325.394L710.296 288.022L710.308 353.385L772.23 390.693L833.264 353.385Z" fill="#51323D"/>
<path d="M772.235 353.385L771.776 325.393L710.297 288.021L710.309 353.385L772.231 390.693L772.235 353.385Z" fill="#904749"/>
<rect width="71.953" height="71.953" transform="matrix(-0.854512 -0.519432 -0.854512 0.519432 833.264 288.021)" fill="#7C323D"/>
<path d="M833.264 288.861L833.265 223.498L771.775 260.87L710.296 223.498L710.308 288.861L772.23 326.169L833.264 288.861Z" fill="#5B3E48"/>
<path d="M772.235 288.86L771.776 260.869L710.297 223.497L710.309 288.861L772.231 326.169L772.235 288.86Z" fill="#965254"/>
<rect width="71.953" height="71.953" transform="matrix(-0.854512 -0.519432 -0.854512 0.519432 833.264 223.496)" fill="#7C323D"/>
<path d="M794.264 238.237H805.431V266.776L794.264 275.461V238.237Z" fill="#7C323D"/>
<path d="M1484.54 101.768L1484.54 24.5631L1444.13 49.1234L1403.72 24.5631L1403.73 101.768L1444.43 126.286L1484.54 101.768Z" fill="#5B3E48"/>
<path d="M1444.43 67.5189L1444.13 49.1235L1403.72 24.5632L1403.73 101.768L1444.43 126.286L1444.43 67.5189Z" fill="#965254"/>
<rect width="47.2864" height="47.2864" transform="matrix(-0.854512 -0.519432 -0.854512 0.519432 1484.54 24.562)" fill="#7C323D"/>
<path d="M614.716 526.126L614.716 448.922L574.306 473.482L533.903 448.922L533.911 526.126L574.605 550.645L614.716 526.126Z" fill="#51323D"/>
<path d="M574.607 491.878L574.305 473.483L533.902 448.922L533.91 526.127L574.605 550.645L574.607 491.878Z" fill="#998778"/>
<rect width="47.2864" height="47.2864" transform="matrix(-0.854512 -0.519432 -0.854512 0.519432 614.717 448.921)" fill="#795D50"/>
<path d="M1576.35 531.428L1576.36 420.605L1472.1 483.969L1367.86 420.605L1367.88 531.428L1472.87 594.684L1576.35 531.428Z" fill="#51323D"/>
<path d="M1472.88 531.427L1472.1 483.969L1367.86 420.605L1367.88 531.427L1472.87 594.683L1472.88 531.427Z" fill="#998778"/>
<rect width="121.996" height="121.996" transform="matrix(-0.854512 -0.519432 -0.854512 0.519432 1576.36 420.604)" fill="#795D50"/>
<path d="M1420.86 563.317L1420.87 506.874L1367.77 539.146L1314.68 506.874L1314.69 563.317L1368.16 595.533L1420.86 563.317Z" fill="#51323D"/>
<path d="M1368.16 563.317L1367.77 539.146L1314.68 506.875L1314.69 563.317L1368.16 595.533L1368.16 563.317Z" fill="#998778"/>
<rect width="62.1326" height="62.1326" transform="matrix(-0.854512 -0.519432 -0.854512 0.519432 1420.87 506.875)" fill="#795D50"/>
<path d="M1473.25 326.951L1473.25 270.509L1420.15 302.78L1367.06 270.509L1367.07 326.951L1420.54 359.167L1473.25 326.951Z" fill="#51323D"/>
<path d="M1420.55 326.952L1420.15 302.781L1367.06 270.509L1367.07 326.952L1420.54 359.168L1420.55 326.952Z" fill="#998778"/>
<rect width="62.1326" height="62.1326" transform="matrix(-0.854512 -0.519432 -0.854512 0.519432 1473.25 270.509)" fill="#795D50"/>
<path d="M1525.75 358.87L1525.75 302.428L1472.65 334.699L1419.56 302.428L1419.57 358.87L1473.05 391.086L1525.75 358.87Z" fill="#51323D"/>
<path d="M1473.05 358.87L1472.65 334.7L1419.56 302.428L1419.57 358.87L1473.04 391.086L1473.05 358.87Z" fill="#998778"/>
<rect width="62.1326" height="62.1326" transform="matrix(-0.854512 -0.519432 -0.854512 0.519432 1525.75 302.428)" fill="#795D50"/>
<path d="M1474.32 389.945L1474.32 333.503L1421.22 365.774L1368.14 333.503L1368.15 389.945L1421.62 422.161L1474.32 389.945Z" fill="#51323D"/>
<path d="M1421.62 389.945L1421.22 365.775L1368.13 333.503L1368.15 389.945L1421.62 422.162L1421.62 389.945Z" fill="#998778"/>
<rect width="62.1326" height="62.1326" transform="matrix(-0.854512 -0.519432 -0.854512 0.519432 1474.32 333.503)" fill="#795D50"/>
<path d="M1748.97 256.601L1748.97 223.499L1687.48 260.871L1626 223.499L1626.02 256.601L1687.94 293.909L1748.97 256.601Z" fill="#51323D"/>
<path d="M1687.94 288.861L1687.48 260.87L1626.01 223.498L1626.02 256.6L1687.94 293.908L1687.94 288.861Z" fill="#998778"/>
<rect width="71.953" height="71.953" transform="matrix(-0.854512 -0.519432 -0.854512 0.519432 1748.97 223.498)" fill="#795D50"/>
<path d="M1576.86 389.945L1576.86 333.503L1523.76 365.774L1470.67 333.503L1470.68 389.945L1524.15 422.161L1576.86 389.945Z" fill="#51323D"/>
<path d="M1524.16 389.945L1523.76 365.775L1470.67 333.503L1470.68 389.945L1524.15 422.162L1524.16 389.945Z" fill="#998778"/>
<rect width="62.1326" height="62.1326" transform="matrix(-0.854512 -0.519432 -0.854512 0.519432 1576.86 333.503)" fill="#795D50"/>
<path d="M1628.3 961.743L1628.3 896.38L1566.81 933.752L1505.33 896.38L1505.34 961.743L1567.26 999.051L1628.3 961.743Z" fill="#51323D"/>
<path d="M1567.27 961.743L1566.81 933.752L1505.33 896.38L1505.34 961.743L1567.27 999.051L1567.27 961.743Z" fill="#998778"/>
<rect width="71.953" height="71.953" transform="matrix(-0.854512 -0.519432 -0.854512 0.519432 1628.3 896.379)" fill="#795D50"/>
<path d="M1568.74 997.725L1568.74 932.362L1507.25 969.734L1445.77 932.362L1445.78 997.725L1507.71 1035.03L1568.74 997.725Z" fill="#51323D"/>
<path d="M1507.71 997.725L1507.25 969.734L1445.77 932.362L1445.79 997.725L1507.71 1035.03L1507.71 997.725Z" fill="#998778"/>
<rect width="71.953" height="71.953" transform="matrix(-0.854512 -0.519432 -0.854512 0.519432 1568.74 932.361)" fill="#795D50"/>
<path d="M1488.86 487.044C1488.86 486.901 1488.93 486.768 1489.05 486.688L1517.66 467.443C1517.95 467.252 1518.33 467.456 1518.33 467.799V480.695C1518.33 480.837 1518.26 480.971 1518.14 481.05L1489.53 500.296C1489.25 500.487 1488.86 500.283 1488.86 499.94V487.044Z" fill="#5B3E48"/>
<path d="M1514.58 488.651C1514.58 488.508 1514.65 488.375 1514.77 488.295L1543.37 469.049C1543.66 468.858 1544.04 469.062 1544.04 469.405V482.301C1544.04 482.444 1543.97 482.577 1543.85 482.657L1515.24 501.902C1514.96 502.094 1514.58 501.89 1514.58 501.547V488.651Z" fill="#5B3E48"/>
<path d="M1521 466.149C1521 466.006 1521.08 465.873 1521.19 465.793L1536.41 455.558C1536.69 455.367 1537.08 455.571 1537.08 455.914V468.81C1537.08 468.953 1537.01 469.086 1536.89 469.166L1521.67 479.4C1521.39 479.592 1521 479.388 1521 479.045V466.149Z" fill="#5B3E48"/>
<path d="M1443.32 491.428C1443.32 491.285 1443.25 491.152 1443.13 491.072L1414.53 471.827C1414.24 471.635 1413.86 471.839 1413.86 472.182V485.078C1413.86 485.221 1413.93 485.354 1414.05 485.434L1442.66 504.679C1442.94 504.871 1443.32 504.667 1443.32 504.324V491.428Z" fill="#795D50"/>
<path d="M1436.89 468.926C1436.89 468.783 1436.82 468.65 1436.7 468.57L1421.49 458.335C1421.2 458.144 1420.82 458.348 1420.82 458.691V471.587C1420.82 471.73 1420.89 471.863 1421.01 471.943L1436.23 482.177C1436.51 482.369 1436.89 482.165 1436.89 481.822V468.926Z" fill="#795D50"/>
<ellipse cx="1149.76" cy="689.274" rx="29.1592" ry="13.0286" fill="#904749"/>
<ellipse cx="1368.14" cy="644.605" rx="29.1592" ry="13.0286" fill="#904749"/>
<ellipse cx="1491.9" cy="308.648" rx="25.1794" ry="11.2504" transform="rotate(25.9153 1491.9 308.648)" fill="#5C463C"/>
<ellipse cx="1449.34" cy="315.769" rx="12.8576" ry="5.74487" fill="#5C463C"/>
<path d="M1300.38 501.129C1302.03 499.662 1302.42 497.231 1301.31 495.32L1272.41 445.671C1271.38 443.9 1273.72 442.113 1275.16 443.576L1326.47 495.858C1328.18 497.601 1328.25 500.372 1326.63 502.197L1252.58 585.376L1230.28 563.275L1300.38 501.129Z" fill="#FF5C5C"/>
<ellipse rx="2.90141" ry="5.22254" transform="matrix(-0.753219 -0.65777 -0.65777 0.753219 1272.27 536.29)" fill="#CA3E3E"/>
<ellipse rx="1.69271" ry="3.04687" transform="matrix(-0.73996 -0.67265 -0.67265 0.73996 1261.1 543.084)" fill="#CA3E3E"/>
<ellipse rx="0.918881" ry="1.65399" transform="matrix(-0.714274 -0.699867 -0.699867 0.714274 1280.16 526.155)" fill="#CA3E3E"/>
<ellipse rx="0.918881" ry="1.65399" transform="matrix(-0.691474 -0.722401 -0.722401 0.691474 1267.21 547.773)" fill="#CA3E3E"/>
<path d="M1133.96 502.37C1132.3 500.903 1131.91 498.472 1133.02 496.561L1161.92 446.912C1162.95 445.141 1160.61 443.354 1159.18 444.816L1107.86 497.099C1106.15 498.842 1106.08 501.613 1107.71 503.437L1181.75 586.617L1204.06 564.516L1133.96 502.37Z" fill="#FF5C5C"/>
<ellipse cx="1162.07" cy="537.528" rx="2.90141" ry="5.22254" transform="rotate(-41.13 1162.07 537.528)" fill="#CA3E3E"/>
<ellipse cx="1173.23" cy="544.323" rx="1.69271" ry="3.04687" transform="rotate(-42.272 1173.23 544.323)" fill="#CA3E3E"/>
<ellipse cx="1154.17" cy="527.396" rx="0.918881" ry="1.65399" transform="rotate(-44.4163 1154.17 527.396)" fill="#CA3E3E"/>
<ellipse cx="1167.13" cy="549.012" rx="0.918881" ry="1.65399" transform="rotate(-46.2531 1167.13 549.012)" fill="#CA3E3E"/>
<path d="M1249.64 286.421L1262.05 279.183V307.619L1249.64 314.857V286.421Z" fill="#FF696A"/>
<path d="M1249.64 286.421L1262.05 279.183V307.619L1249.64 314.857V286.421Z" fill="#FF696A"/>
<path d="M1249.64 286.421L1262.05 279.183V307.619L1249.64 314.857V286.421Z" fill="#FF696A"/>
<path d="M1249.64 337.295L1262.05 330.057V344.844L1249.64 352.082V337.295Z" fill="#DB4241"/>
<path d="M1178.73 29.6006H1254.85V562.641H1178.73V29.6006Z" fill="url(#paint0_linear_90_4359)"/>
<path d="M1254.85 563.375C1254.85 579.189 1237.81 592.009 1216.79 592.009C1195.77 592.009 1178.73 579.189 1178.73 563.375C1178.73 547.561 1195.77 534.741 1216.79 534.741C1237.81 534.741 1254.85 547.561 1254.85 563.375Z" fill="url(#paint1_linear_90_4359)"/>
<path d="M1186.36 250.439L1173.95 243.201V256.746L1186.36 263.984V250.439Z" fill="#FF696A"/>
<path d="M1186.36 250.439L1173.95 243.201V256.746L1186.36 263.984V250.439Z" fill="#FF696A"/>
<path d="M1186.36 250.439L1173.95 243.201V256.746L1186.36 263.984V250.439Z" fill="#FF696A"/>
<path d="M1156.58 295.108L1144.17 287.87V302.656L1156.58 309.894V295.108Z" fill="#DB4241"/>
<path d="M1015.13 249.198L1002.72 241.959V256.746L1015.13 263.984V249.198Z" fill="#FF696A"/>
<path d="M1355.11 144.968L1367.52 137.73V152.517L1355.11 159.755V144.968Z" fill="#F04D4E"/>
<path d="M1132.22 0.000244141H1301.36V581.134H1132.22V0.000244141Z" fill="url(#paint2_linear_90_4359)"/>
<path d="M1301.36 581.935C1301.36 599.176 1263.5 613.153 1216.79 613.153C1170.08 613.153 1132.22 599.176 1132.22 581.935C1132.22 564.693 1170.08 550.717 1216.79 550.717C1263.5 550.717 1301.36 564.693 1301.36 581.935Z" fill="url(#paint3_linear_90_4359)"/>
<path fill-rule="evenodd" clip-rule="evenodd" d="M1213.81 430.934C1205.34 441.709 1205.34 459.18 1213.81 469.956L1218.97 476.531L1224.14 469.956C1226.35 467.147 1227.98 463.883 1229.04 460.401C1229 460.401 1228.96 460.402 1228.93 460.402C1223.1 460.402 1218.38 455.679 1218.38 449.855C1218.38 444.12 1222.96 439.454 1228.66 439.311C1227.6 436.271 1226.1 433.424 1224.14 430.934L1218.97 424.358L1213.81 430.934Z" fill="white"/>
<path d="M745.178 924.171L745.179 833.103L659.508 885.172L573.851 833.103L573.868 924.171L660.142 976.151L745.178 924.171Z" fill="#51323D"/>
<path d="M660.145 924.172L659.506 885.173L573.849 833.104L573.866 924.172L660.14 976.151L660.145 924.172Z" fill="#904749"/>
<rect width="100.249" height="100.249" transform="matrix(-0.854512 -0.519432 -0.854512 0.519432 745.179 833.103)" fill="#7C323D"/>
<path d="M745.178 834.277L745.179 743.21L659.508 795.278L573.851 743.209L573.868 834.277L660.142 886.257L745.178 834.277Z" fill="#5B3E48"/>
<path d="M660.145 834.278L659.506 795.279L573.849 743.21L573.866 834.278L660.14 886.258L660.145 834.278Z" fill="#965254"/>
<rect width="100.249" height="100.249" transform="matrix(-0.854512 -0.519432 -0.854512 0.519432 745.179 743.209)" fill="#7C323D"/>
<path d="M690.844 763.742H706.403V803.504L690.844 815.605V763.742Z" fill="#7C323D"/>
<path d="M661.18 671.082C661.18 695.262 672.503 714.863 686.47 714.863C700.437 714.863 714.207 692.021 696.531 667.275C696.531 643.095 673.788 640.626 659.821 640.626C645.854 640.626 661.18 646.903 661.18 671.082Z" fill="#F0F0F0"/>
<ellipse rx="14.6843" ry="20.9388" transform="matrix(-1 0 0 1 674.973 646.337)" fill="#FFD3AA"/>
<path d="M629.057 644.977C629.057 657.743 636.671 677.881 672.294 674.346C685.81 674.346 679.092 663.997 679.092 651.232C679.092 638.466 685.81 628.118 672.294 628.118C641.837 628.118 629.057 632.212 629.057 644.977Z" fill="#F0F0F0"/>
<ellipse rx="53.8425" ry="21.7546" transform="matrix(-1 0 0 1 657.024 629.748)" fill="#64ABFF"/>
<path d="M659.469 583.207C658.766 582.178 657.731 581.423 656.537 581.066L615.871 568.916C615.328 568.753 614.93 569.425 615.333 569.823L636.841 591.103C638.366 592.611 638.862 594.874 638.108 596.882L626.119 628.797H690.646L659.469 583.207Z" fill="#3B8BEA"/>
<path d="M626.022 629.205C626.022 634.011 640.51 637.907 658.382 637.907C676.254 637.907 690.742 634.011 690.742 629.205C690.742 624.399 676.254 620.503 658.382 620.503C640.51 620.503 626.022 624.399 626.022 629.205Z" fill="#3B8BEA"/>
<path d="M604.812 740.942L638.848 667.276L639.46 667.59C653.53 674.822 670.249 674.704 684.216 667.276L710.858 740.922H710.865C710.865 740.928 710.865 740.935 710.865 740.941C710.852 742.334 709.482 743.712 706.831 744.998C704.168 746.291 700.264 747.465 695.343 748.454C690.422 749.444 684.579 750.228 678.149 750.764C671.72 751.299 664.828 751.575 657.868 751.575C650.909 751.575 644.017 751.299 637.587 750.764C631.158 750.228 625.315 749.444 620.394 748.454C615.473 747.465 611.569 746.291 608.906 744.998C606.255 743.712 604.885 742.334 604.872 740.942H604.812Z" fill="#3B8BEA"/>
<path d="M725.001 646.064L742.856 651.733L760.571 595.937L754.963 583.838L742.716 590.268L725.001 646.064Z" fill="white"/>
<path d="M725.001 646.064L734.272 649.008L754.963 583.838L742.716 590.268L725.001 646.064Z" fill="#BCCFE8"/>
<path d="M716.725 647.368C716.412 648.354 716.958 649.407 717.944 649.72L746.511 658.79C747.497 659.103 748.551 658.558 748.864 657.572L749.997 654.001L717.859 643.797L716.725 647.368Z" fill="#673417"/>
<path d="M744.682 655.263L749.145 656.68L750.988 650.877C751.379 649.645 750.697 648.328 749.464 647.937C748.232 647.545 746.915 648.227 746.524 649.46L744.682 655.263Z" fill="#673417"/>
<path d="M724.12 667.405C723.65 668.884 724.469 670.464 725.948 670.934L727.733 671.501C729.212 671.97 730.792 671.152 731.262 669.673L735.797 655.389C736.267 653.91 735.448 652.33 733.969 651.86L732.184 651.294C730.704 650.824 729.125 651.642 728.655 653.121L724.12 667.405Z" fill="#673417"/>
<path d="M717.005 646.475L721.469 647.892L723.311 642.089C723.702 640.857 723.02 639.54 721.788 639.149C720.555 638.758 719.239 639.44 718.847 640.672L717.005 646.475Z" fill="#673417"/>
<ellipse rx="11.965" ry="12.5089" transform="matrix(-1 0 0 1 727.724 665.102)" fill="#FFD3AA"/>
<path d="M727.725 650.96L682.312 668.635L680.952 691.75L727.725 686.039V650.96Z" fill="#3B8BEA"/>
<defs>
<linearGradient id="paint0_linear_90_4359" x1="1217.08" y1="41.348" x2="1217.08" y2="539.88" gradientUnits="userSpaceOnUse">
<stop stop-color="#DB4241" stop-opacity="0"/>
<stop offset="1" stop-color="#DB4241"/>
</linearGradient>
<linearGradient id="paint1_linear_90_4359" x1="1217.08" y1="41.348" x2="1217.08" y2="539.88" gradientUnits="userSpaceOnUse">
<stop stop-color="#DB4241" stop-opacity="0"/>
<stop offset="1" stop-color="#DB4241"/>
</linearGradient>
<linearGradient id="paint2_linear_90_4359" x1="1217.43" y1="12.8076" x2="1217.43" y2="556.32" gradientUnits="userSpaceOnUse">
<stop stop-color="#F04D4E" stop-opacity="0"/>
<stop offset="1" stop-color="#F04D4E"/>
</linearGradient>
<linearGradient id="paint3_linear_90_4359" x1="1217.43" y1="12.8076" x2="1217.43" y2="556.32" gradientUnits="userSpaceOnUse">
<stop stop-color="#F04D4E" stop-opacity="0"/>
<stop offset="1" stop-color="#F04D4E"/>
</linearGradient>
</defs>
</svg>