<svg width="424" height="205" viewBox="0 0 424 205" fill="none" xmlns="http://www.w3.org/2000/svg">
<circle cx="215" cy="151" r="3" fill="#FF696A"/>
<circle cx="224" cy="157" r="3" fill="#FF696A" fill-opacity="0.4"/>
<circle cx="224" cy="148" r="3" fill="#FF696A"/>
<circle cx="270" cy="174" r="3" fill="#FF696A" fill-opacity="0.4"/>
<circle cx="261" cy="163" r="3" fill="#FF696A"/>
<circle cx="290" cy="163" r="3" fill="#FF696A"/>
<circle cx="264" cy="151" r="3" fill="#FF696A" fill-opacity="0.4"/>
<circle r="3" transform="matrix(-1 0 0 1 391 161)" fill="#FF696A"/>
<circle r="3" transform="matrix(-1 0 0 1 382 167)" fill="#FF696A" fill-opacity="0.4"/>
<circle r="3" transform="matrix(-1 0 0 1 382 158)" fill="#FF696A"/>
<circle r="3" transform="matrix(-1 0 0 1 336 184)" fill="#FF696A" fill-opacity="0.4"/>
<circle r="3" transform="matrix(-1 0 0 1 345 173)" fill="#FF696A"/>
<circle r="3" transform="matrix(-1 0 0 1 316 173)" fill="#FF696A"/>
<circle r="3" transform="matrix(-1 0 0 1 342 161)" fill="#FF696A" fill-opacity="0.4"/>
<circle r="3" transform="matrix(-1 0 0 1 307 187)" fill="#C4C4C4" fill-opacity="0.3"/>
<circle r="3" transform="matrix(-1 0 0 1 298 193)" fill="#E3E8EE" fill-opacity="0.2"/>
<circle r="3" transform="matrix(-1 0 0 1 298 184)" fill="#C4C4C4" fill-opacity="0.3"/>
<circle r="3" transform="matrix(-1 0 0 1 261 199)" fill="#C4C4C4" fill-opacity="0.3"/>
<circle r="3" transform="matrix(-1 0 0 1 232 199)" fill="#C4C4C4" fill-opacity="0.3"/>
<circle r="3" transform="matrix(-1 0 0 1 258 187)" fill="#E3E8EE" fill-opacity="0.2"/>
<circle cx="362" cy="187" r="3" fill="#C4C4C4" fill-opacity="0.3"/>
<circle cx="371" cy="193" r="3" fill="#E3E8EE" fill-opacity="0.2"/>
<circle cx="371" cy="184" r="3" fill="#C4C4C4" fill-opacity="0.3"/>
<circle cx="408" cy="199" r="3" fill="#C4C4C4" fill-opacity="0.3"/>
<circle cx="411" cy="187" r="3" fill="#E3E8EE" fill-opacity="0.2"/>
<path d="M-1 38.7914C-0.79834 38.7914 -0.594238 38.7753 -0.388672 38.7436C29.8828 34.0605 54.9209 47.3676 81.4902 62.5087C82.6084 63.1459 83.7295 63.787 84.854 64.4291C110.086 78.8476 136.892 94.1654 169.629 93.1889C205.169 92.1283 232.612 75.3793 258.688 59.4648C259.859 58.7504 261.028 58.0375 262.194 57.3275C289.563 40.6674 315.812 25.6913 350.035 28.2963C379.352 30.5282 398.454 43.3676 413.498 59.7836C421.076 68.0531 427.62 77.2274 433.938 86.5033C434.657 87.5605 435.375 88.62 436.092 89.6806L437.798 92.2084C442.742 99.538 447.666 106.837 452.849 113.465C453.638 114.473 454.812 115 456 115.001V150H-1V38.7914Z" fill="url(#paint0_linear_1335_23)"/>
<path d="M-1 38.7901C62.6452 28.9436 103.773 95.1514 169.51 93.19C241.302 91.0481 279.052 22.8806 350.339 28.3075C411.437 32.9588 430.308 82.1538 456 115" stroke="#FF696A" stroke-width="4" stroke-linecap="round"/>
<line x1="298" y1="23" x2="298" y2="32" stroke="#FF696A" stroke-width="4" stroke-linecap="round"/>
<line x1="298" y1="43" x2="298" y2="52" stroke="#FF696A" stroke-width="4" stroke-linecap="round"/>
<line x1="298" y1="63" x2="298" y2="72" stroke="#FF696A" stroke-width="4" stroke-linecap="round"/>
<line x1="298" y1="83" x2="298" y2="92" stroke="#FF696A" stroke-width="4" stroke-linecap="round"/>
<line x1="298" y1="103" x2="298" y2="112" stroke="#FF696A" stroke-width="4" stroke-linecap="round"/>
<line x1="298" y1="123" x2="298" y2="132" stroke="#FF696A" stroke-width="4" stroke-linecap="round"/>
<circle cx="298" cy="38" r="8" fill="#252525" stroke="#FF696A" stroke-width="4"/>
<rect x="275" width="45.9459" height="22.973" rx="2.48649" fill="#252525"/>
<path d="M282.646 14.8771V7.81552L283.106 8.41227L281.341 9.30741L280.98 7.89011L283.355 6.6593H284.25V14.8771H282.646ZM281.192 15.4863V13.9944H285.742V15.4863H281.192ZM289.776 15.5734C289.171 15.5734 288.624 15.4449 288.135 15.1879C287.646 14.9227 287.239 14.5415 286.916 14.0442L287.811 13.0744C288.176 13.4806 288.503 13.7624 288.793 13.9198C289.084 14.069 289.403 14.1436 289.751 14.1436C290.066 14.1436 290.348 14.0773 290.596 13.9447C290.845 13.8038 291.044 13.6173 291.193 13.3852C291.342 13.1449 291.417 12.8838 291.417 12.602C291.417 12.2953 291.346 12.026 291.205 11.7939C291.064 11.5535 290.874 11.3629 290.633 11.222C290.393 11.0811 290.12 11.0107 289.813 11.0107C289.647 11.0107 289.49 11.0231 289.34 11.0479C289.191 11.0728 289.017 11.1225 288.818 11.1971C288.628 11.2717 288.383 11.3878 288.085 11.5452L287.314 10.5009L287.824 6.75876H292.635V8.18849H288.731L289.092 7.79065L288.682 10.5507L288.222 10.2274C288.329 10.1279 288.487 10.0326 288.694 9.94146C288.91 9.85029 289.142 9.7757 289.39 9.71768C289.639 9.65966 289.883 9.63065 290.124 9.63065C290.662 9.63065 291.143 9.75498 291.566 10.0036C291.989 10.2523 292.324 10.5962 292.573 11.0355C292.822 11.4665 292.946 11.9638 292.946 12.5274C292.946 13.0993 292.805 13.6173 292.523 14.0815C292.25 14.5373 291.873 14.902 291.392 15.1755C290.911 15.4407 290.372 15.5734 289.776 15.5734ZM295.136 15.6231C294.837 15.6231 294.605 15.5361 294.439 15.362C294.282 15.1879 294.203 14.9434 294.203 14.6285C294.203 14.3384 294.286 14.1022 294.452 13.9198C294.626 13.7292 294.854 13.6339 295.136 13.6339C295.434 13.6339 295.662 13.7209 295.819 13.895C295.985 14.0607 296.068 14.3052 296.068 14.6285C296.068 14.9186 295.981 15.1589 295.807 15.3496C295.641 15.5319 295.417 15.6231 295.136 15.6231ZM300.667 15.4863V8.462L301.263 8.52417L298.304 12.142L298.168 11.9182H303.7V13.3231H297.297L296.626 12.0301L300.953 6.75876H302.221V15.4863H300.667ZM308.595 15.4863V14.4793H314.861V15.4863H308.595ZM309.341 11.3463V10.3393H314.115V11.3463H309.341ZM308.844 7.6166V6.60957H314.612V7.6166H308.844Z" fill="white"/>
<defs>
<linearGradient id="paint0_linear_1335_23" x1="227.5" y1="28" x2="227.5" y2="150" gradientUnits="userSpaceOnUse">
<stop stop-color="#FF696A" stop-opacity="0.4"/>
<stop offset="1" stop-color="#181818" stop-opacity="0"/>
</linearGradient>
</defs>
</svg>
