<svg width="44" height="40" viewBox="0 0 44 40" fill="none" xmlns="http://www.w3.org/2000/svg">
<mask id="mask0_423_1319" style="mask-type:alpha" maskUnits="userSpaceOnUse" x="4" y="0" width="40" height="40">
<path d="M43.6857 20C43.6857 30.8575 34.884 39.6592 24.0264 39.6592C13.1689 39.6592 4.36719 30.8575 4.36719 20C4.36719 9.14245 13.1689 0.340698 24.0264 0.340698C34.884 0.340698 43.6857 9.14245 43.6857 20ZM8.87594 20C8.87594 28.3674 15.6591 35.1505 24.0264 35.1505C32.3938 35.1505 39.177 28.3674 39.177 20C39.177 11.6326 32.3938 4.84945 24.0264 4.84945C15.6591 4.84945 8.87594 11.6326 8.87594 20Z" fill="#C4C4C4"/>
</mask>
<g mask="url(#mask0_423_1319)">
<rect width="42.0589" height="40.9614" transform="translate(2.72363 0.340698)" fill="#FF5454"/>
<line x1="2.72363" y1="2.58596" x2="44.7825" y2="2.58596" stroke="black" stroke-width="0.328567"/>
<line x1="2.72363" y1="4.99538" x2="44.7825" y2="4.99538" stroke="black" stroke-width="0.328567"/>
<line x1="2.72363" y1="7.40493" x2="44.7825" y2="7.40493" stroke="black" stroke-width="0.328567"/>
<line x1="2.72363" y1="9.81435" x2="44.7825" y2="9.81435" stroke="black" stroke-width="0.328567"/>
<line x1="2.72363" y1="12.2239" x2="44.7825" y2="12.2239" stroke="black" stroke-width="0.328567"/>
<line x1="2.72363" y1="14.6333" x2="44.7825" y2="14.6333" stroke="black" stroke-width="0.328567"/>
<line x1="2.72363" y1="17.0429" x2="44.7825" y2="17.0429" stroke="black" stroke-width="0.328567"/>
<line x1="2.72363" y1="19.4523" x2="44.7825" y2="19.4523" stroke="black" stroke-width="0.328567"/>
<line x1="2.72363" y1="21.8618" x2="44.7825" y2="21.8618" stroke="black" stroke-width="0.328567"/>
<line x1="2.72363" y1="24.2714" x2="44.7825" y2="24.2714" stroke="black" stroke-width="0.328567"/>
<line x1="2.72363" y1="26.6808" x2="44.7825" y2="26.6808" stroke="black" stroke-width="0.328567"/>
<line x1="2.72363" y1="29.0904" x2="44.7825" y2="29.0904" stroke="black" stroke-width="0.328567"/>
<line x1="2.72363" y1="31.4998" x2="44.7825" y2="31.4998" stroke="black" stroke-width="0.328567"/>
<line x1="2.72363" y1="33.9093" x2="44.7825" y2="33.9093" stroke="black" stroke-width="0.328567"/>
<line x1="2.72363" y1="36.3187" x2="44.7825" y2="36.3187" stroke="black" stroke-width="0.328567"/>
<line x1="2.72363" y1="38.7283" x2="44.7825" y2="38.7283" stroke="black" stroke-width="0.328567"/>
</g>
<mask id="path-18-inside-1_423_1319" fill="white">
<path d="M43.6857 20C43.6857 30.8575 34.884 39.6592 24.0264 39.6592C13.1689 39.6592 4.36719 30.8575 4.36719 20C4.36719 9.14245 13.1689 0.340698 24.0264 0.340698C34.884 0.340698 43.6857 9.14245 43.6857 20ZM8.87594 20C8.87594 28.3674 15.6591 35.1505 24.0264 35.1505C32.3938 35.1505 39.177 28.3674 39.177 20C39.177 11.6326 32.3938 4.84945 24.0264 4.84945C15.6591 4.84945 8.87594 11.6326 8.87594 20Z"/>
</mask>
<path d="M43.6857 20C43.6857 30.8575 34.884 39.6592 24.0264 39.6592C13.1689 39.6592 4.36719 30.8575 4.36719 20C4.36719 9.14245 13.1689 0.340698 24.0264 0.340698C34.884 0.340698 43.6857 9.14245 43.6857 20ZM8.87594 20C8.87594 28.3674 15.6591 35.1505 24.0264 35.1505C32.3938 35.1505 39.177 28.3674 39.177 20C39.177 11.6326 32.3938 4.84945 24.0264 4.84945C15.6591 4.84945 8.87594 11.6326 8.87594 20Z" stroke="black" stroke-width="0.876179" mask="url(#path-18-inside-1_423_1319)"/>
<line x1="20.0283" y1="39.6044" x2="24.0806" y2="39.6044" stroke="black" stroke-width="0.109522"/>
<line x1="20.0283" y1="0.395434" x2="24.0806" y2="0.395434" stroke="black" stroke-width="0.109522"/>
<mask id="path-21-inside-2_423_1319" fill="white">
<path d="M39.633 20C39.633 30.8575 30.8312 39.6592 19.9737 39.6592C9.1162 39.6592 0.314453 30.8575 0.314453 20C0.314453 9.14245 9.1162 0.340698 19.9737 0.340698C30.8312 0.340698 39.633 9.14245 39.633 20ZM4.8232 20C4.8232 28.3674 11.6063 35.1505 19.9737 35.1505C28.3411 35.1505 35.1242 28.3674 35.1242 20C35.1242 11.6326 28.3411 4.84945 19.9737 4.84945C11.6063 4.84945 4.8232 11.6326 4.8232 20Z"/>
</mask>
<path d="M39.633 20C39.633 30.8575 30.8312 39.6592 19.9737 39.6592C9.1162 39.6592 0.314453 30.8575 0.314453 20C0.314453 9.14245 9.1162 0.340698 19.9737 0.340698C30.8312 0.340698 39.633 9.14245 39.633 20ZM4.8232 20C4.8232 28.3674 11.6063 35.1505 19.9737 35.1505C28.3411 35.1505 35.1242 28.3674 35.1242 20C35.1242 11.6326 28.3411 4.84945 19.9737 4.84945C11.6063 4.84945 4.8232 11.6326 4.8232 20Z" fill="white" stroke="black" stroke-width="0.876179" mask="url(#path-21-inside-2_423_1319)"/>
</svg>
