<svg width="16" height="13" viewBox="0 0 16 13" fill="none" xmlns="http://www.w3.org/2000/svg">
<path d="M15.3668 1.56861C14.8189 1.81132 14.2295 1.97326 13.6078 2.04988C14.2399 1.67464 14.7261 1.07617 14.9543 0.369188C14.3629 0.715846 13.7077 0.970558 13.0106 1.10475C12.454 0.514561 11.66 0.148438 10.7803 0.148438C9.09053 0.148438 7.72088 1.50608 7.72088 3.18014C7.72088 3.41704 7.74863 3.64773 7.80081 3.8718C5.25866 3.74423 3.00393 2.53569 1.49554 0.701764C1.23047 1.14989 1.08137 1.67464 1.08137 2.22838C1.08137 3.28078 1.6202 4.20727 2.44191 4.75314C1.94035 4.73782 1.4682 4.59824 1.05487 4.37459C1.05487 4.38371 1.05487 4.39737 1.05487 4.41021C1.05487 5.88092 2.10975 7.10561 3.50797 7.38434C3.25243 7.45434 2.9824 7.49327 2.70408 7.49327C2.50652 7.49327 2.31393 7.4709 2.12756 7.43736C2.51687 8.63927 3.64631 9.51772 4.98448 9.54381C3.93747 10.3556 2.61876 10.8418 1.18491 10.8418C0.937242 10.8418 0.694955 10.8277 0.455566 10.7987C1.81031 11.6565 3.41893 12.1593 5.14559 12.1593C10.772 12.1593 13.8501 7.53883 13.8501 3.53052C13.8501 3.39923 13.846 3.26836 13.8398 3.13914C14.4403 2.71503 14.958 2.17992 15.3668 1.56861Z" fill="#2DA4FA"/>
</svg>
